<?xml version="1.0" encoding="UTF-8" standalone="no"?>
<!DOCTYPE svg PUBLIC "-//W3C//DTD SVG 1.1//EN" "http://www.w3.org/Graphics/SVG/1.1/DTD/svg11.dtd">
<!-- Created with Vectornator (http://vectornator.io/) -->
<svg height="100%" stroke-miterlimit="10" style="fill-rule:nonzero;clip-rule:evenodd;stroke-linecap:round;stroke-linejoin:round;" version="1.1" viewBox="0 0 1024 1024" width="100%" xml:space="preserve" xmlns="http://www.w3.org/2000/svg" xmlns:vectornator="http://vectornator.io" xmlns:xlink="http://www.w3.org/1999/xlink">
<defs>
<filter color-interpolation-filters="sRGB" filterUnits="userSpaceOnUse" height="711.441" id="Filter" width="900.06" x="61.9902" y="159.875">
<feDropShadow dx="0.0202398" dy="3.59583" flood-color="#000000" flood-opacity="0.470387" in="SourceGraphic" result="Shadow" stdDeviation="4.45205"/>
<feGaussianBlur in="Shadow" result="Blur" stdDeviation="0.538733"/>
</filter>
</defs>
<g id="Calque-1" vectornator:layerName="Calque 1">
<path d="M243.608 169.257L225.456 171.483L210.901 173.867L192.258 179.432L178.248 184.944L157.806 195.173L139.817 205.985L125.207 219.87L112.669 234.339L100.622 251.67L87.6483 272.498L79.635 295.818L75.5465 317.176L74.9469 339.913L76.4732 362.543L81.5429 388.566L90.5374 414.482L301.827 758.922L380.489 781.234L380.652 765.281L417.83 702.266L512.027 854.743L608.46 697.178L647.872 770.687L641.603 781.711L727.024 762.684L933.299 412.044L939.895 396.834L946.982 376.323L949.053 357.508L948.672 340.072L947.636 318.236L942.839 296.613L936.406 279.494L927.793 261.104L916.727 244.515L904.844 230.947L890.071 216.267L874.099 201.957L858.072 191.728L844.062 184.944L825.637 178.266L806.013 174.026L787.424 171.165L767.254 171.271L744.959 173.073L725.77 176.782L705.764 182.877L686.739 191.887L667.933 203.229L653.869 212.292L639.368 223.739L624.595 238.049L605.843 260.574L532.197 379.397L514.317 407.115L465.31 327.617L451.355 306.365L438.654 286.013L424.862 268.947L406.001 245.257L390.901 229.569L370.35 212.08L347.236 195.65L326.085 184.732L308.969 177.63L288.854 173.814L264.814 170.529L243.608 169.257ZM243.772 227.555L257.945 228.403L270.701 229.41L288.908 234.074L304.553 240.487L318.345 247.059L330.337 255.062L343.529 266.827L354.814 278.01L365.171 292.161L376.837 310.551L471.961 470.025L419.792 562.932L270.402 319.988C259.548 302.336 235.133 294.913 215.869 303.408L215.799 303.439C196.535 311.933 189.75 333.11 200.643 350.739L376.237 634.904L339.823 695.482L152.9 394.661L145.758 379.662L141.452 366.995L138.127 354.54L137.8 341.397L137.473 326.875L139.326 313.519L143.251 298.945L152.3 282.303L158.95 272.498L163.148 267.304L169.471 261.104L175.359 256.175L180.864 251.882L187.46 246.794L198.308 239.162L208.884 234.074L219.241 230.417L232.542 228.297L243.772 227.555ZM762.893 228.509L788.242 229.622L811.464 235.717L836.485 250.981L858.235 270.431L873.99 292.108L885.655 325.815L886.418 342.775L886.2 360.476L877.533 383.107L692.627 695.482L651.906 626.159L819.714 351.956C830 335.148 823.965 314.032 806.236 304.791L806.171 304.758C788.441 295.518 765.7 301.635 755.376 318.421L512.409 713.502L460.786 629.551L630.319 342.298L660.192 293.698L675.728 273.876L693.881 255.38L717.048 240.328L745.34 230.47L762.893 228.509Z" fill="#3b82f6" fill-rule="nonzero" filter="url(#Filter)" stroke="#bbbabb" stroke-linecap="butt" stroke-linejoin="round" stroke-width="1" vectornator:blur="1.07747" vectornator:shadowAngle="1.56517" vectornator:shadowColor="#000000" vectornator:shadowOffset="3.59589" vectornator:shadowOpacity="0.470387" vectornator:shadowRadius="8.90411"/>
</g>
</svg>
